<svg width="1110" height="1111" xmlns="http://www.w3.org/2000/svg" xmlns:xlink="http://www.w3.org/1999/xlink" xml:space="preserve" overflow="hidden"><g transform="translate(-632 -682)"><path d="M1390.22 1447.59 1484.72 1447.59 1484.72 1473.66C1484.72 1530.61 1444.31 1578.12 1390.6 1589.11L1390.22 1589.14ZM1216.79 884.5 1366.84 884.5C1431.94 884.5 1484.72 937.257 1484.72 1002.34L1484.72 1175.85 1487.07 1175.54 1517.25 1167.19 1522.51 1162.85C1537.25 1152.89 1555.02 1147.08 1574.15 1147.08 1625.15 1147.08 1666.5 1188.42 1666.5 1239.41 1666.5 1290.4 1625.15 1331.73 1574.15 1331.73 1555.02 1331.73 1537.25 1325.92 1522.51 1315.96L1517.25 1311.62 1487.07 1303.28 1484.72 1302.96 1484.72 1399.25 1390.22 1399.25 1390.22 1244.49 1588.34 1244.49 1588.34 1196.15 1340.85 1196.15 1340.85 1591.5 1194.68 1591.5 1195 1589.14 1203.34 1558.98 1207.69 1553.72C1217.65 1538.98 1223.46 1521.22 1223.46 1502.1 1223.46 1451.11 1182.11 1409.77 1131.11 1409.77 1080.1 1409.77 1038.75 1451.11 1038.75 1502.1 1038.75 1521.22 1044.57 1538.98 1054.53 1553.72L1058.87 1558.98 1067.22 1589.14 1067.54 1591.5 895.372 1591.5C830.273 1591.5 777.5 1538.74 777.5 1473.66L777.5 1353.8 792.722 1365.87C835.274 1393.69 885.547 1409.77 939.405 1409.77 1092.6 1409.77 1216.79 1279.69 1216.79 1119.22ZM895.372 884.5 1120.49 884.5 1120.49 1116.13 1120.42 1116.13C1120.42 1219.64 1040.31 1303.56 941.481 1303.56 879.715 1303.56 825.258 1270.78 793.102 1220.92L777.5 1190.81 777.5 1002.34C777.5 937.257 830.273 884.5 895.372 884.5Z" stroke="#FFFFFF" stroke-width="4.58333" stroke-miterlimit="8" fill="#FFFFFF" fill-rule="evenodd"/></g></svg>