<svg width="1216" height="1197" xmlns="http://www.w3.org/2000/svg" xmlns:xlink="http://www.w3.org/1999/xlink" xml:space="preserve" overflow="hidden"><g transform="translate(-266 -544)"><path d="M325 826.5C325 689.257 436.257 578 573.5 578L929.5 578C1066.74 578 1178 689.257 1178 826.5L1178 826.5C1178 963.743 1066.74 1075 929.5 1075L573.5 1075C436.257 1075 325 963.743 325 826.5Z" fill="#002060" fill-rule="evenodd"/><path d="M325.5 827C325.5 689.757 436.757 578.5 574 578.5L930 578.5C1067.24 578.5 1178.5 689.757 1178.5 827L1178.5 827C1178.5 964.243 1067.24 1075.5 930 1075.5L574 1075.5C436.757 1075.5 325.5 964.243 325.5 827Z" stroke="#002060" stroke-width="68.75" stroke-miterlimit="8" fill="#0070C0" fill-rule="evenodd"/><path d="M735.492 652 969.931 652 1045 1013.86 1028.42 1022.1C998.686 1033.63 965.991 1040 931.672 1040L655 1040Z" fill="#FFC000" fill-rule="evenodd"/><path d="M732 670.5C732 626.593 786.173 591 853 591 919.826 591 974 626.593 974 670.5 974 714.407 919.826 750 853 750 786.173 750 732 714.407 732 670.5Z" fill="#FFC000" fill-rule="evenodd"/><path d="M325.5 1395C325.5 1222.96 464.963 1083.5 637 1083.5L1136 1083.5C1308.04 1083.5 1447.5 1222.96 1447.5 1395L1447.5 1395C1447.5 1567.04 1308.04 1706.5 1136 1706.5L637 1706.5C464.963 1706.5 325.5 1567.04 325.5 1395Z" stroke="#002060" stroke-width="68.75" stroke-miterlimit="8" fill="#0070C0" fill-rule="evenodd"/><path d="M749 650.5C749 617.639 795.786 591 853.5 591 911.214 591 958 617.639 958 650.5 958 683.361 911.214 710 853.5 710 795.786 710 749 683.361 749 650.5Z" fill="#FFE699" fill-rule="evenodd"/><path d="M775 624.5C775 605.998 809.922 591 853 591 896.078 591 931 605.998 931 624.5 931 643.001 896.078 658 853 658 809.922 658 775 643.001 775 624.5Z" fill="#FFFFFF" fill-rule="evenodd"/><path d="M646.733 1112 1055.64 1112 1194 1665.62 1179.22 1667.56C1168.32 1668.51 1157.26 1669 1146.07 1669L625.441 1669C591.869 1669 559.488 1664.62 529.033 1656.48L512 1651.12Z" fill="#FFC000" fill-rule="evenodd"/><path d="M280 1377.5C280 1352.92 299.923 1333 324.5 1333 349.077 1333 369 1352.92 369 1377.5 369 1402.08 349.077 1422 324.5 1422 299.923 1422 280 1402.08 280 1377.5Z" stroke="#002060" stroke-width="27.5" stroke-miterlimit="8" fill="#FFC000" fill-rule="evenodd"/><path d="M280 814C280 789.147 299.923 769 324.5 769 349.077 769 369 789.147 369 814 369 838.853 349.077 859 324.5 859 299.923 859 280 838.853 280 814Z" stroke="#002060" stroke-width="27.5" stroke-miterlimit="8" fill="#FFC000" fill-rule="evenodd"/><path d="M610 1092.5C610 1067.92 630.147 1048 655 1048 679.853 1048 700 1067.92 700 1092.5 700 1117.08 679.853 1137 655 1137 630.147 1137 610 1117.08 610 1092.5Z" stroke="#002060" stroke-width="27.5" stroke-miterlimit="8" fill="#FFC000" fill-rule="evenodd"/><path d="M988 1092.5C988 1067.92 1007.92 1048 1032.5 1048 1057.08 1048 1077 1067.92 1077 1092.5 1077 1117.08 1057.08 1137 1032.5 1137 1007.92 1137 988 1117.08 988 1092.5Z" stroke="#002060" stroke-width="27.5" stroke-miterlimit="8" fill="#FFC000" fill-rule="evenodd"/><path d="M0 0 0.000360892 474.134" stroke="#002060" stroke-width="68.75" stroke-miterlimit="8" fill="none" fill-rule="evenodd" transform="matrix(1 0 0 -1 325.5 1333.63)"/><path d="M280 1092.5C280 1067.92 299.923 1048 324.5 1048 349.077 1048 369 1067.92 369 1092.5 369 1117.08 349.077 1137 324.5 1137 299.923 1137 280 1117.08 280 1092.5Z" stroke="#002060" stroke-width="27.5" stroke-miterlimit="8" fill="#FFC000" fill-rule="evenodd"/><path d="M369.5 1092.5 610.448 1092.5" stroke="#002060" stroke-width="68.75" stroke-miterlimit="8" fill="none" fill-rule="evenodd"/></g></svg>